<?xml version="1.0" encoding="UTF-8"?> <!-- Generator: Adobe Illustrator 20.1.0, SVG Export Plug-In . SVG Version: 6.00 Build 0) --> <svg xmlns="http://www.w3.org/2000/svg" xmlns:xlink="http://www.w3.org/1999/xlink" id="Layer_1" x="0px" y="0px" viewBox="0 0 240 80" style="enable-background:new 0 0 240 80;" xml:space="preserve"> <style type="text/css"> .st0{fill:#5F6266;} .st1{fill-rule:evenodd;clip-rule:evenodd;fill:#004592;} .st2{fill:#FFE84E;} </style> <g> <path class="st0" d="M100.1,25.4c-0.6-0.4-1.3-0.6-2.2-0.6c-0.4,0-0.7,0-1.1,0.1c-0.3,0.1-0.7,0.2-0.9,0.4 c-0.3,0.2-0.5,0.4-0.6,0.7C95.1,26.2,95,26.6,95,27c0,0.4,0.1,0.7,0.4,1c0.2,0.2,0.5,0.4,0.9,0.6c0.4,0.2,0.8,0.3,1.3,0.4 s1,0.2,1.5,0.3c0.5,0.1,1,0.3,1.5,0.4c0.5,0.2,0.9,0.4,1.3,0.7c0.4,0.3,0.7,0.6,0.9,1c0.2,0.4,0.4,0.9,0.4,1.6 c0,0.7-0.2,1.3-0.5,1.8c-0.3,0.5-0.7,0.9-1.2,1.2c-0.5,0.3-1,0.5-1.6,0.7s-1.2,0.2-1.8,0.2c-0.7,0-1.4-0.1-2-0.3 c-0.6-0.2-1.2-0.5-1.7-0.8s-0.9-0.8-1.2-1.4c-0.3-0.6-0.4-1.2-0.4-2h1.6c0,0.5,0.1,1,0.3,1.4c0.2,0.4,0.5,0.7,0.8,1 c0.3,0.3,0.7,0.4,1.2,0.6c0.5,0.1,0.9,0.2,1.4,0.2c0.4,0,0.8,0,1.2-0.1c0.4-0.1,0.7-0.2,1.1-0.4c0.3-0.2,0.6-0.4,0.8-0.7 c0.2-0.3,0.3-0.7,0.3-1.2c0-0.4-0.1-0.8-0.4-1.1c-0.2-0.3-0.5-0.5-0.9-0.7c-0.4-0.2-0.8-0.3-1.3-0.4c-0.5-0.1-1-0.2-1.5-0.3 c-0.5-0.1-1-0.2-1.5-0.4s-0.9-0.3-1.3-0.6c-0.4-0.2-0.7-0.6-0.9-1c-0.2-0.4-0.4-0.9-0.4-1.5c0-0.6,0.1-1.2,0.4-1.7 c0.3-0.5,0.6-0.9,1.1-1.2c0.4-0.3,0.9-0.5,1.5-0.7c0.6-0.1,1.1-0.2,1.7-0.2c0.7,0,1.3,0.1,1.8,0.2c0.6,0.2,1.1,0.4,1.5,0.7 s0.8,0.8,1,1.3c0.2,0.5,0.4,1.1,0.4,1.8h-1.6C101,26.5,100.6,25.9,100.1,25.4z"></path> <path class="st0" d="M111.6,35.9c-0.7,0.5-1.6,0.8-2.6,0.8c-0.7,0-1.4-0.1-1.9-0.4c-0.5-0.2-1-0.6-1.4-1s-0.7-0.9-0.8-1.5 c-0.2-0.6-0.3-1.3-0.3-2c0-0.7,0.1-1.4,0.3-1.9c0.2-0.6,0.5-1.1,0.9-1.5c0.4-0.4,0.9-0.8,1.4-1c0.5-0.2,1.1-0.4,1.8-0.4 c0.8,0,1.5,0.2,2.1,0.5c0.5,0.3,1,0.8,1.3,1.3c0.3,0.5,0.6,1.1,0.7,1.7c0.1,0.6,0.2,1.2,0.2,1.8h-7c0,0.4,0,0.8,0.1,1.2 c0.1,0.4,0.3,0.7,0.5,1c0.2,0.3,0.5,0.5,0.9,0.7c0.4,0.2,0.8,0.3,1.3,0.3c0.6,0,1.2-0.1,1.6-0.5c0.4-0.3,0.7-0.8,0.8-1.4h1.5 C112.8,34.6,112.3,35.4,111.6,35.9z M111.2,30c-0.1-0.3-0.3-0.6-0.6-0.8c-0.2-0.2-0.5-0.4-0.8-0.6c-0.3-0.1-0.7-0.2-1.1-0.2 c-0.4,0-0.8,0.1-1.1,0.2c-0.3,0.1-0.6,0.3-0.8,0.6c-0.2,0.2-0.4,0.5-0.5,0.8c-0.1,0.3-0.2,0.7-0.2,1h5.3 C111.5,30.6,111.4,30.3,111.2,30z"></path> <path class="st0" d="M120.3,28.8c-0.4-0.3-0.9-0.5-1.5-0.5c-0.6,0-1,0.1-1.4,0.3c-0.4,0.2-0.7,0.5-0.9,0.8 c-0.2,0.3-0.4,0.7-0.5,1.2c-0.1,0.4-0.1,0.9-0.1,1.4c0,0.4,0.1,0.9,0.2,1.3c0.1,0.4,0.3,0.8,0.5,1.1s0.5,0.6,0.8,0.8 c0.3,0.2,0.8,0.3,1.2,0.3c0.8,0,1.3-0.2,1.8-0.6s0.7-1,0.8-1.7h1.6c-0.2,1.2-0.6,2-1.3,2.7c-0.7,0.6-1.6,0.9-2.8,0.9 c-0.7,0-1.3-0.1-1.9-0.3c-0.5-0.2-1-0.6-1.4-1c-0.4-0.4-0.6-0.9-0.8-1.5c-0.2-0.6-0.3-1.2-0.3-1.9c0-0.7,0.1-1.3,0.3-2 c0.2-0.6,0.5-1.1,0.8-1.6c0.4-0.4,0.8-0.8,1.4-1.1c0.6-0.3,1.2-0.4,1.9-0.4c0.5,0,1,0.1,1.5,0.2s0.9,0.3,1.2,0.6 c0.4,0.3,0.6,0.6,0.9,1c0.2,0.4,0.4,0.9,0.4,1.4H121C120.9,29.6,120.6,29.2,120.3,28.8z"></path> <path class="st0" d="M130.6,36.5v-1.5h0c-0.3,0.6-0.7,1-1.2,1.3s-1.1,0.4-1.8,0.4c-0.6,0-1.1-0.1-1.5-0.2c-0.4-0.2-0.7-0.4-1-0.7 s-0.4-0.7-0.5-1.1s-0.2-0.9-0.2-1.4v-6.1h1.5v6.3c0,0.6,0.2,1,0.5,1.4c0.3,0.3,0.8,0.5,1.4,0.5c0.5,0,0.9-0.1,1.2-0.2 c0.3-0.1,0.6-0.3,0.9-0.6c0.2-0.3,0.4-0.6,0.5-0.9c0.1-0.4,0.2-0.7,0.2-1.2v-5.3h1.5v9.3H130.6z"></path> <path class="st0" d="M135.8,27.2v2h0c0.4-0.8,0.8-1.3,1.4-1.7s1.2-0.5,2.1-0.5v1.6c-0.6,0-1.1,0.1-1.6,0.3s-0.8,0.4-1,0.7 c-0.3,0.3-0.5,0.7-0.6,1.2s-0.2,1-0.2,1.6v4.1h-1.5v-9.3H135.8z"></path> <path class="st0" d="M146.6,35.9c-0.7,0.5-1.6,0.8-2.6,0.8c-0.7,0-1.4-0.1-1.9-0.4c-0.5-0.2-1-0.6-1.4-1s-0.7-0.9-0.8-1.5 c-0.2-0.6-0.3-1.3-0.3-2c0-0.7,0.1-1.4,0.3-1.9s0.5-1.1,0.9-1.5c0.4-0.4,0.9-0.8,1.4-1c0.5-0.2,1.1-0.4,1.8-0.4 c0.8,0,1.5,0.2,2.1,0.5c0.5,0.3,1,0.8,1.3,1.3c0.3,0.5,0.6,1.1,0.7,1.7c0.1,0.6,0.2,1.2,0.2,1.8h-7c0,0.4,0,0.8,0.1,1.2 c0.1,0.4,0.3,0.7,0.5,1c0.2,0.3,0.5,0.5,0.9,0.7c0.4,0.2,0.8,0.3,1.3,0.3c0.6,0,1.2-0.1,1.6-0.5c0.4-0.3,0.7-0.8,0.8-1.4h1.5 C147.8,34.6,147.3,35.4,146.6,35.9z M146.3,30c-0.1-0.3-0.3-0.6-0.6-0.8c-0.2-0.2-0.5-0.4-0.8-0.6c-0.3-0.1-0.7-0.2-1.1-0.2 c-0.4,0-0.8,0.1-1.1,0.2c-0.3,0.1-0.6,0.3-0.8,0.6c-0.2,0.2-0.4,0.5-0.5,0.8c-0.1,0.3-0.2,0.7-0.2,1h5.3 C146.5,30.6,146.4,30.3,146.3,30z"></path> <path class="st0" d="M159.4,23.7c2,0,3.5,0.5,4.6,1.5c1.1,1,1.6,2.5,1.6,4.6c0,1.1-0.1,2-0.4,2.9s-0.6,1.5-1.1,2.1s-1.1,1-1.9,1.3 c-0.8,0.3-1.7,0.5-2.8,0.5H155V23.7H159.4z M159.5,35.1c0.2,0,0.4,0,0.7,0s0.6-0.1,0.9-0.2c0.3-0.1,0.6-0.3,1-0.5 c0.3-0.2,0.6-0.5,0.9-0.9c0.3-0.4,0.5-0.8,0.6-1.4c0.2-0.6,0.2-1.2,0.2-2c0-0.8-0.1-1.5-0.2-2.1s-0.4-1.1-0.7-1.5 c-0.3-0.4-0.8-0.8-1.3-1c-0.5-0.2-1.2-0.3-2-0.3h-2.9v10H159.5z"></path> <path class="st0" d="M175.6,36.5c-0.3,0.2-0.6,0.2-1.1,0.2c-0.4,0-0.7-0.1-0.9-0.3c-0.2-0.2-0.4-0.6-0.4-1.1 c-0.4,0.5-0.9,0.9-1.5,1.1c-0.6,0.2-1.2,0.3-1.8,0.3c-0.4,0-0.8,0-1.2-0.1c-0.4-0.1-0.7-0.2-1-0.5s-0.5-0.5-0.7-0.8 s-0.2-0.7-0.2-1.2c0-0.5,0.1-1,0.3-1.3s0.4-0.6,0.7-0.8s0.6-0.4,1-0.5c0.4-0.1,0.8-0.2,1.2-0.3c0.4-0.1,0.8-0.1,1.2-0.2 s0.7-0.1,1-0.2s0.5-0.2,0.7-0.3s0.3-0.4,0.3-0.7c0-0.3-0.1-0.6-0.2-0.8c-0.1-0.2-0.3-0.4-0.5-0.5s-0.4-0.2-0.7-0.2 c-0.2,0-0.5-0.1-0.7-0.1c-0.6,0-1.2,0.1-1.6,0.4c-0.4,0.2-0.7,0.7-0.7,1.4h-1.5c0-0.6,0.1-1.1,0.4-1.5s0.5-0.7,0.9-1 c0.4-0.2,0.8-0.4,1.2-0.5s1-0.2,1.5-0.2c0.4,0,0.8,0,1.3,0.1c0.4,0.1,0.8,0.2,1.1,0.4s0.6,0.4,0.8,0.8c0.2,0.3,0.3,0.8,0.3,1.3v4.8 c0,0.4,0,0.6,0.1,0.8c0,0.2,0.2,0.3,0.4,0.3c0.1,0,0.3,0,0.5-0.1V36.5z M173.1,31.7c-0.2,0.1-0.4,0.2-0.8,0.3 c-0.3,0.1-0.6,0.1-1,0.2c-0.3,0-0.7,0.1-1,0.1c-0.3,0.1-0.7,0.1-0.9,0.3c-0.3,0.1-0.5,0.3-0.7,0.5c-0.2,0.2-0.3,0.5-0.3,0.9 c0,0.3,0.1,0.5,0.2,0.6s0.2,0.3,0.4,0.4c0.2,0.1,0.4,0.2,0.6,0.2s0.4,0.1,0.7,0.1c0.5,0,0.9-0.1,1.3-0.2c0.4-0.1,0.7-0.3,0.9-0.5 c0.2-0.2,0.4-0.4,0.5-0.7s0.2-0.5,0.2-0.7V31.7z"></path> <path class="st0" d="M181,27.2v1.4h-1.9v5.8c0,0.2,0,0.3,0,0.4c0,0.1,0.1,0.2,0.2,0.3c0.1,0.1,0.2,0.1,0.4,0.1s0.3,0,0.6,0h0.7v1.4 h-1.2c-0.4,0-0.7,0-1-0.1c-0.3-0.1-0.5-0.2-0.7-0.3s-0.3-0.3-0.4-0.6c-0.1-0.3-0.1-0.6-0.1-1v-5.9h-1.6v-1.4h1.6v-2.8h1.5v2.8H181z "></path> <path class="st0" d="M191,36.5c-0.3,0.2-0.6,0.2-1.1,0.2c-0.4,0-0.7-0.1-0.9-0.3c-0.2-0.2-0.4-0.6-0.4-1.1 c-0.4,0.5-0.9,0.9-1.5,1.1c-0.6,0.2-1.2,0.3-1.8,0.3c-0.4,0-0.8,0-1.2-0.1c-0.4-0.1-0.7-0.2-1-0.5s-0.5-0.5-0.7-0.8 s-0.2-0.7-0.2-1.2c0-0.5,0.1-1,0.3-1.3s0.4-0.6,0.7-0.8s0.6-0.4,1-0.5c0.4-0.1,0.8-0.2,1.2-0.3c0.4-0.1,0.8-0.1,1.2-0.2 s0.7-0.1,1-0.2s0.5-0.2,0.7-0.3s0.3-0.4,0.3-0.7c0-0.3-0.1-0.6-0.2-0.8c-0.1-0.2-0.3-0.4-0.5-0.5s-0.4-0.2-0.7-0.2 c-0.2,0-0.5-0.1-0.7-0.1c-0.6,0-1.2,0.1-1.6,0.4c-0.4,0.2-0.7,0.7-0.7,1.4h-1.5c0-0.6,0.1-1.1,0.4-1.5s0.5-0.7,0.9-1 c0.4-0.2,0.8-0.4,1.2-0.5s1-0.2,1.5-0.2c0.4,0,0.8,0,1.3,0.1c0.4,0.1,0.8,0.2,1.1,0.4s0.6,0.4,0.8,0.8c0.2,0.3,0.3,0.8,0.3,1.3v4.8 c0,0.4,0,0.6,0.1,0.8c0,0.2,0.2,0.3,0.4,0.3c0.1,0,0.3,0,0.5-0.1V36.5z M188.5,31.7c-0.2,0.1-0.4,0.2-0.8,0.3 c-0.3,0.1-0.6,0.1-1,0.2c-0.3,0-0.7,0.1-1,0.1c-0.3,0.1-0.7,0.1-0.9,0.3c-0.3,0.1-0.5,0.3-0.7,0.5c-0.2,0.2-0.3,0.5-0.3,0.9 c0,0.3,0.1,0.5,0.2,0.6s0.2,0.3,0.4,0.4c0.2,0.1,0.4,0.2,0.6,0.2s0.4,0.1,0.7,0.1c0.5,0,0.9-0.1,1.3-0.2c0.4-0.1,0.7-0.3,0.9-0.5 c0.2-0.2,0.4-0.4,0.5-0.7s0.2-0.5,0.2-0.7V31.7z"></path> <path class="st0" d="M202.9,36.3c-0.7,0.3-1.4,0.5-2.1,0.5c-0.9,0-1.6-0.1-2.1-0.4c-0.5-0.3-0.9-0.6-1.2-1s-0.5-0.8-0.6-1.2 c-0.1-0.4-0.1-0.7-0.1-1c0-0.5,0.1-0.9,0.2-1.3c0.2-0.4,0.4-0.7,0.6-1c0.3-0.3,0.6-0.6,1-0.8c0.4-0.2,0.8-0.5,1.2-0.7 c-0.2-0.3-0.4-0.5-0.5-0.7s-0.3-0.5-0.5-0.7c-0.1-0.2-0.2-0.5-0.3-0.7c-0.1-0.3-0.1-0.5-0.1-0.9c0-0.3,0.1-0.7,0.2-1 c0.1-0.3,0.3-0.6,0.6-0.8s0.5-0.4,0.9-0.6c0.4-0.1,0.8-0.2,1.2-0.2c0.4,0,0.8,0.1,1.2,0.2s0.7,0.3,1,0.5s0.5,0.5,0.7,0.8 c0.2,0.3,0.3,0.7,0.3,1.1c0,0.4-0.1,0.7-0.2,1.1c-0.1,0.3-0.3,0.6-0.5,0.9c-0.2,0.3-0.5,0.5-0.8,0.7c-0.3,0.2-0.6,0.4-0.9,0.6 l2.3,2.8c0.2-0.7,0.4-1.3,0.4-2h1.5c0,0.4-0.1,0.7-0.1,1c0,0.3-0.1,0.5-0.2,0.7c-0.1,0.2-0.1,0.5-0.2,0.7c-0.1,0.2-0.2,0.5-0.3,0.8 l2.5,2.9h-2l-1.4-1.6C204.1,35.5,203.6,36,202.9,36.3z M199.8,30.8c-0.3,0.2-0.5,0.4-0.7,0.6c-0.2,0.2-0.4,0.5-0.5,0.8 c-0.1,0.3-0.2,0.6-0.2,1c0,0.3,0.1,0.6,0.2,0.9s0.3,0.5,0.5,0.7c0.2,0.2,0.5,0.3,0.8,0.4s0.6,0.2,0.9,0.2c0.6,0,1.1-0.1,1.6-0.4 s0.8-0.6,1.2-1.1l-3-3.5C200.4,30.5,200.1,30.7,199.8,30.8z M201.8,28.2c0.2-0.1,0.4-0.3,0.6-0.5c0.2-0.2,0.3-0.4,0.4-0.6 c0.1-0.2,0.2-0.5,0.2-0.7c0-0.4-0.1-0.7-0.4-1s-0.6-0.4-1.1-0.4c-0.4,0-0.7,0.1-1,0.3c-0.3,0.2-0.5,0.6-0.5,1c0,0.2,0,0.4,0.1,0.6 c0.1,0.2,0.2,0.4,0.3,0.6c0.1,0.2,0.3,0.4,0.4,0.5c0.1,0.2,0.3,0.4,0.4,0.5C201.4,28.5,201.6,28.4,201.8,28.2z"></path> <path class="st0" d="M100.1,46.4c-0.6-0.4-1.3-0.6-2.2-0.6c-0.4,0-0.7,0-1.1,0.1c-0.3,0.1-0.7,0.2-0.9,0.4 c-0.3,0.2-0.5,0.4-0.6,0.7C95.1,47.2,95,47.6,95,48c0,0.4,0.1,0.7,0.4,1c0.2,0.2,0.5,0.4,0.9,0.6c0.4,0.2,0.8,0.3,1.3,0.4 s1,0.2,1.5,0.3c0.5,0.1,1,0.3,1.5,0.4c0.5,0.2,0.9,0.4,1.3,0.7c0.4,0.3,0.7,0.6,0.9,1c0.2,0.4,0.4,0.9,0.4,1.6 c0,0.7-0.2,1.3-0.5,1.8c-0.3,0.5-0.7,0.9-1.2,1.2c-0.5,0.3-1,0.5-1.6,0.7s-1.2,0.2-1.8,0.2c-0.7,0-1.4-0.1-2-0.3 c-0.6-0.2-1.2-0.5-1.7-0.8s-0.9-0.8-1.2-1.4c-0.3-0.6-0.4-1.2-0.4-2h1.6c0,0.5,0.1,1,0.3,1.4c0.2,0.4,0.5,0.7,0.8,1 c0.3,0.3,0.7,0.4,1.2,0.6c0.5,0.1,0.9,0.2,1.4,0.2c0.4,0,0.8,0,1.2-0.1c0.4-0.1,0.7-0.2,1.1-0.4c0.3-0.2,0.6-0.4,0.8-0.7 c0.2-0.3,0.3-0.7,0.3-1.2c0-0.4-0.1-0.8-0.4-1.1c-0.2-0.3-0.5-0.5-0.9-0.7c-0.4-0.2-0.8-0.3-1.3-0.4c-0.5-0.1-1-0.2-1.5-0.3 c-0.5-0.1-1-0.2-1.5-0.4s-0.9-0.3-1.3-0.6c-0.4-0.2-0.7-0.6-0.9-1c-0.2-0.4-0.4-0.9-0.4-1.5c0-0.6,0.1-1.2,0.4-1.7 c0.3-0.5,0.6-0.9,1.1-1.2c0.4-0.3,0.9-0.5,1.5-0.7c0.6-0.1,1.1-0.2,1.7-0.2c0.7,0,1.3,0.1,1.8,0.2c0.6,0.2,1.1,0.4,1.5,0.7 s0.8,0.8,1,1.3c0.2,0.5,0.4,1.1,0.4,1.8h-1.6C101,47.5,100.6,46.9,100.1,46.4z"></path> <path class="st0" d="M111.6,56.9c-0.7,0.5-1.6,0.8-2.6,0.8c-0.7,0-1.4-0.1-1.9-0.4c-0.5-0.2-1-0.6-1.4-1s-0.7-0.9-0.8-1.5 c-0.2-0.6-0.3-1.3-0.3-2c0-0.7,0.1-1.4,0.3-1.9c0.2-0.6,0.5-1.1,0.9-1.5c0.4-0.4,0.9-0.8,1.4-1c0.5-0.2,1.1-0.4,1.8-0.4 c0.8,0,1.5,0.2,2.1,0.5c0.5,0.3,1,0.8,1.3,1.3c0.3,0.5,0.6,1.1,0.7,1.7c0.1,0.6,0.2,1.2,0.2,1.8h-7c0,0.4,0,0.8,0.1,1.2 c0.1,0.4,0.3,0.7,0.5,1c0.2,0.3,0.5,0.5,0.9,0.7c0.4,0.2,0.8,0.3,1.3,0.3c0.6,0,1.2-0.1,1.6-0.5c0.4-0.3,0.7-0.8,0.8-1.4h1.5 C112.8,55.6,112.3,56.4,111.6,56.9z M111.2,51c-0.1-0.3-0.3-0.6-0.6-0.8c-0.2-0.2-0.5-0.4-0.8-0.6c-0.3-0.1-0.7-0.2-1.1-0.2 c-0.4,0-0.8,0.1-1.1,0.2c-0.3,0.1-0.6,0.3-0.8,0.6c-0.2,0.2-0.4,0.5-0.5,0.8c-0.1,0.3-0.2,0.7-0.2,1h5.3 C111.5,51.6,111.4,51.3,111.2,51z"></path> <path class="st0" d="M116.1,48.2v2h0c0.4-0.8,0.8-1.3,1.4-1.7s1.2-0.5,2.1-0.5v1.6c-0.6,0-1.1,0.1-1.6,0.3s-0.8,0.4-1,0.7 c-0.3,0.3-0.5,0.7-0.6,1.2s-0.2,1-0.2,1.6v4.1h-1.5v-9.3H116.1z"></path> <path class="st0" d="M123.2,57.5l-3.5-9.3h1.7l2.6,7.8h0l2.5-7.8h1.6l-3.4,9.3H123.2z"></path> <path class="st0" d="M136.3,56.9c-0.7,0.5-1.6,0.8-2.6,0.8c-0.7,0-1.4-0.1-1.9-0.4c-0.5-0.2-1-0.6-1.4-1s-0.7-0.9-0.8-1.5 c-0.2-0.6-0.3-1.3-0.3-2c0-0.7,0.1-1.4,0.3-1.9s0.5-1.1,0.9-1.5c0.4-0.4,0.9-0.8,1.4-1c0.5-0.2,1.1-0.4,1.8-0.4 c0.8,0,1.5,0.2,2.1,0.5c0.5,0.3,1,0.8,1.3,1.3c0.3,0.5,0.6,1.1,0.7,1.7c0.1,0.6,0.2,1.2,0.2,1.8h-7c0,0.4,0,0.8,0.1,1.2 c0.1,0.4,0.3,0.7,0.5,1c0.2,0.3,0.5,0.5,0.9,0.7c0.4,0.2,0.8,0.3,1.3,0.3c0.6,0,1.2-0.1,1.6-0.5c0.4-0.3,0.7-0.8,0.8-1.4h1.5 C137.4,55.6,137,56.4,136.3,56.9z M135.9,51c-0.1-0.3-0.3-0.6-0.6-0.8c-0.2-0.2-0.5-0.4-0.8-0.6c-0.3-0.1-0.7-0.2-1.1-0.2 c-0.4,0-0.8,0.1-1.1,0.2c-0.3,0.1-0.6,0.3-0.8,0.6c-0.2,0.2-0.4,0.5-0.5,0.8c-0.1,0.3-0.2,0.7-0.2,1h5.3 C136.1,51.6,136,51.3,135.9,51z"></path> <path class="st0" d="M140.7,48.2v2h0c0.4-0.8,0.8-1.3,1.4-1.7s1.2-0.5,2.1-0.5v1.6c-0.6,0-1.1,0.1-1.6,0.3c-0.4,0.2-0.8,0.4-1,0.7 c-0.3,0.3-0.5,0.7-0.6,1.2c-0.1,0.5-0.2,1-0.2,1.6v4.1h-1.5v-9.3H140.7z"></path> <path class="st0" d="M152,44.7v12.9h-1.5V44.7H152z"></path> <path class="st0" d="M154.1,51c0.2-0.6,0.5-1.1,0.9-1.5s0.9-0.8,1.4-1s1.2-0.4,1.9-0.4c0.7,0,1.4,0.1,2,0.4c0.6,0.3,1,0.6,1.4,1 c0.4,0.4,0.7,1,0.9,1.5c0.2,0.6,0.3,1.2,0.3,1.9s-0.1,1.3-0.3,1.9c-0.2,0.6-0.5,1.1-0.9,1.5c-0.4,0.4-0.9,0.8-1.4,1 c-0.6,0.2-1.2,0.4-2,0.4c-0.7,0-1.4-0.1-1.9-0.4c-0.6-0.2-1-0.6-1.4-1s-0.7-1-0.9-1.5c-0.2-0.6-0.3-1.2-0.3-1.9 S153.9,51.6,154.1,51z M155.7,54.4c0.1,0.4,0.4,0.8,0.6,1.1c0.3,0.3,0.6,0.5,0.9,0.7c0.4,0.2,0.7,0.2,1.1,0.2s0.8-0.1,1.1-0.2 c0.4-0.2,0.7-0.4,0.9-0.7s0.5-0.7,0.6-1.1c0.2-0.4,0.2-0.9,0.2-1.5c0-0.6-0.1-1.1-0.2-1.5s-0.4-0.8-0.6-1.1s-0.6-0.5-0.9-0.7 c-0.4-0.2-0.7-0.2-1.1-0.2s-0.8,0.1-1.1,0.2c-0.4,0.2-0.7,0.4-0.9,0.7c-0.3,0.3-0.5,0.7-0.6,1.1c-0.2,0.4-0.2,0.9-0.2,1.5 C155.5,53.5,155.5,54,155.7,54.4z"></path> <path class="st0" d="M170.2,49.8c-0.4-0.3-0.9-0.5-1.5-0.5c-0.6,0-1,0.1-1.4,0.3c-0.4,0.2-0.7,0.5-0.9,0.8 c-0.2,0.3-0.4,0.7-0.5,1.2c-0.1,0.4-0.1,0.9-0.1,1.4c0,0.4,0.1,0.9,0.2,1.3c0.1,0.4,0.3,0.8,0.5,1.1c0.2,0.3,0.5,0.6,0.8,0.8 c0.3,0.2,0.8,0.3,1.2,0.3c0.8,0,1.3-0.2,1.8-0.6s0.7-1,0.8-1.7h1.6c-0.2,1.2-0.6,2-1.3,2.7c-0.7,0.6-1.6,0.9-2.8,0.9 c-0.7,0-1.3-0.1-1.9-0.3c-0.5-0.2-1-0.6-1.4-1c-0.4-0.4-0.6-0.9-0.8-1.5c-0.2-0.6-0.3-1.2-0.3-1.9c0-0.7,0.1-1.3,0.3-2 s0.5-1.1,0.8-1.6c0.4-0.4,0.8-0.8,1.4-1.1c0.6-0.3,1.2-0.4,1.9-0.4c0.5,0,1,0.1,1.5,0.2c0.5,0.1,0.9,0.3,1.2,0.6 c0.4,0.3,0.6,0.6,0.9,1c0.2,0.4,0.4,0.9,0.4,1.4H171C170.9,50.6,170.6,50.2,170.2,49.8z"></path> <path class="st0" d="M182.6,57.5c-0.3,0.2-0.6,0.2-1.1,0.2c-0.4,0-0.7-0.1-0.9-0.3c-0.2-0.2-0.4-0.6-0.4-1.1 c-0.4,0.5-0.9,0.9-1.5,1.1c-0.6,0.2-1.2,0.3-1.8,0.3c-0.4,0-0.8,0-1.2-0.1c-0.4-0.1-0.7-0.2-1-0.5s-0.5-0.5-0.7-0.8 s-0.2-0.7-0.2-1.2c0-0.5,0.1-1,0.3-1.3s0.4-0.6,0.7-0.8s0.6-0.4,1-0.5c0.4-0.1,0.8-0.2,1.2-0.3c0.4-0.1,0.8-0.1,1.2-0.2 s0.7-0.1,1-0.2s0.5-0.2,0.7-0.3s0.3-0.4,0.3-0.7c0-0.3-0.1-0.6-0.2-0.8c-0.1-0.2-0.3-0.4-0.5-0.5s-0.4-0.2-0.7-0.2 c-0.2,0-0.5-0.1-0.7-0.1c-0.6,0-1.2,0.1-1.6,0.4c-0.4,0.2-0.7,0.7-0.7,1.4h-1.5c0-0.6,0.1-1.1,0.4-1.5s0.5-0.7,0.9-1 c0.4-0.2,0.8-0.4,1.2-0.5s1-0.2,1.5-0.2c0.4,0,0.8,0,1.3,0.1c0.4,0.1,0.8,0.2,1.1,0.4s0.6,0.4,0.8,0.8c0.2,0.3,0.3,0.8,0.3,1.3v4.8 c0,0.4,0,0.6,0.1,0.8c0,0.2,0.2,0.3,0.4,0.3c0.1,0,0.3,0,0.5-0.1V57.5z M180.1,52.7c-0.2,0.1-0.4,0.2-0.8,0.3 c-0.3,0.1-0.6,0.1-1,0.2c-0.3,0-0.7,0.1-1,0.1c-0.3,0.1-0.7,0.1-0.9,0.3c-0.3,0.1-0.5,0.3-0.7,0.5c-0.2,0.2-0.3,0.5-0.3,0.9 c0,0.3,0.1,0.5,0.2,0.6s0.2,0.3,0.4,0.4c0.2,0.1,0.4,0.2,0.6,0.2s0.4,0.1,0.7,0.1c0.5,0,0.9-0.1,1.3-0.2c0.4-0.1,0.7-0.3,0.9-0.5 c0.2-0.2,0.4-0.4,0.5-0.7s0.2-0.5,0.2-0.7V52.7z"></path> <path class="st0" d="M188,48.2v1.4h-1.9v5.8c0,0.2,0,0.3,0,0.4c0,0.1,0.1,0.2,0.2,0.3c0.1,0.1,0.2,0.1,0.4,0.1s0.3,0,0.6,0h0.7v1.4 h-1.2c-0.4,0-0.7,0-1-0.1c-0.3-0.1-0.5-0.2-0.7-0.3s-0.3-0.3-0.4-0.6c-0.1-0.3-0.1-0.6-0.1-1v-5.9H183v-1.4h1.6v-2.8h1.5v2.8H188z"></path> <path class="st0" d="M189.8,46.6v-1.9h1.5v1.9H189.8z M191.3,48.2v9.3h-1.5v-9.3H191.3z"></path> <path class="st0" d="M193.5,51c0.2-0.6,0.5-1.1,0.9-1.5s0.9-0.8,1.4-1c0.6-0.3,1.2-0.4,1.9-0.4c0.7,0,1.4,0.1,2,0.4 c0.6,0.3,1,0.6,1.4,1c0.4,0.4,0.7,1,0.9,1.5c0.2,0.6,0.3,1.2,0.3,1.9s-0.1,1.3-0.3,1.9c-0.2,0.6-0.5,1.1-0.9,1.5 c-0.4,0.4-0.9,0.8-1.4,1c-0.6,0.2-1.2,0.4-2,0.4c-0.7,0-1.4-0.1-1.9-0.4c-0.6-0.2-1-0.6-1.4-1s-0.7-1-0.9-1.5 c-0.2-0.6-0.3-1.2-0.3-1.9S193.3,51.6,193.5,51z M195,54.4c0.1,0.4,0.4,0.8,0.6,1.1c0.3,0.3,0.6,0.5,0.9,0.7 c0.4,0.2,0.7,0.2,1.1,0.2c0.4,0,0.8-0.1,1.1-0.2c0.4-0.2,0.7-0.4,0.9-0.7s0.5-0.7,0.6-1.1c0.2-0.4,0.2-0.9,0.2-1.5 c0-0.6-0.1-1.1-0.2-1.5s-0.4-0.8-0.6-1.1s-0.6-0.5-0.9-0.7c-0.4-0.2-0.7-0.2-1.1-0.2c-0.4,0-0.8,0.1-1.1,0.2 c-0.4,0.2-0.7,0.4-0.9,0.7c-0.3,0.3-0.5,0.7-0.6,1.1c-0.2,0.4-0.2,0.9-0.2,1.5C194.8,53.5,194.9,54,195,54.4z"></path> <path class="st0" d="M205.5,48.2v1.5h0c0.6-1.1,1.6-1.7,3-1.7c0.6,0,1.1,0.1,1.5,0.3s0.7,0.4,1,0.7s0.4,0.7,0.5,1.1 c0.1,0.4,0.2,0.9,0.2,1.4v6.1h-1.5v-6.3c0-0.6-0.2-1-0.5-1.4s-0.8-0.5-1.4-0.5c-0.5,0-0.9,0.1-1.2,0.2c-0.3,0.1-0.6,0.3-0.9,0.6 c-0.2,0.3-0.4,0.6-0.5,0.9c-0.1,0.4-0.2,0.7-0.2,1.2v5.3H204v-9.3H205.5z"></path> <path class="st0" d="M215.2,55.5c0.1,0.2,0.3,0.4,0.6,0.6c0.2,0.1,0.5,0.2,0.8,0.3c0.3,0.1,0.6,0.1,0.9,0.1c0.2,0,0.5,0,0.8-0.1 s0.5-0.1,0.7-0.2c0.2-0.1,0.4-0.2,0.5-0.4s0.2-0.4,0.2-0.7c0-0.4-0.2-0.7-0.5-0.9s-0.7-0.4-1.1-0.5c-0.4-0.1-0.9-0.2-1.5-0.3 s-1-0.2-1.5-0.4s-0.8-0.4-1.1-0.8c-0.3-0.3-0.5-0.8-0.5-1.4c0-0.5,0.1-0.9,0.3-1.2s0.5-0.6,0.8-0.8s0.7-0.4,1.1-0.5 c0.4-0.1,0.8-0.2,1.2-0.2c0.5,0,1,0,1.5,0.1c0.4,0.1,0.8,0.2,1.2,0.5s0.6,0.5,0.8,0.9s0.3,0.8,0.4,1.4h-1.5c0-0.3-0.1-0.5-0.2-0.7 c-0.1-0.2-0.3-0.4-0.5-0.5c-0.2-0.1-0.4-0.2-0.7-0.3c-0.2-0.1-0.5-0.1-0.7-0.1c-0.2,0-0.5,0-0.7,0.1c-0.2,0-0.4,0.1-0.6,0.2 c-0.2,0.1-0.3,0.2-0.5,0.4s-0.2,0.3-0.2,0.6c0,0.3,0.1,0.5,0.3,0.7c0.2,0.2,0.4,0.3,0.7,0.4c0.3,0.1,0.6,0.2,1,0.3s0.7,0.2,1.1,0.2 c0.4,0.1,0.8,0.2,1.1,0.3c0.4,0.1,0.7,0.3,1,0.5c0.3,0.2,0.5,0.4,0.7,0.7c0.2,0.3,0.3,0.7,0.3,1.1c0,0.6-0.1,1-0.4,1.4 c-0.2,0.4-0.5,0.7-0.9,0.9c-0.4,0.2-0.8,0.4-1.3,0.5c-0.5,0.1-0.9,0.1-1.4,0.1c-0.5,0-1-0.1-1.5-0.2c-0.5-0.1-0.9-0.3-1.2-0.5 c-0.4-0.2-0.6-0.6-0.9-1c-0.2-0.4-0.3-0.9-0.4-1.5h1.5C215,54.9,215,55.2,215.2,55.5z"></path> </g> <g> <path class="st1" d="M43.4,7C62,7,77.1,22.1,77.1,40.8c0,18.6-15.1,33.8-33.7,33.8S9.6,59.4,9.6,40.8C9.6,22.1,24.7,7,43.4,7z"></path> <g> <path class="st2" d="M36.5,50c-0.2,0-0.5-0.1-0.6-0.3c-0.2-0.2-0.3-0.4-0.3-0.6v-8.7c0-0.2,0.1-0.5,0.3-0.6 c0.2-0.2,0.4-0.3,0.6-0.3h0.1h0.8v-1.3c0-1.9,0.6-3.5,1.8-4.7c1.2-1.3,2.6-1.9,4.3-1.9c1.7,0,3.1,0.6,4.3,1.9 c1.2,1.3,1.8,2.8,1.8,4.7v1.3h0.9c0.2,0,0.5,0.1,0.6,0.3c0.2,0.2,0.3,0.4,0.3,0.6v8.7c0,0.2-0.1,0.5-0.3,0.6 c-0.2,0.2-0.4,0.3-0.6,0.3H36.5z M39.6,38.2v1.3h0.7h6.4h0.7v-1.3c0-1.4-0.4-2.5-1.1-3.3v0c-0.7-0.8-1.7-1.2-2.7-1.2 c-1.1,0-2,0.4-2.7,1.2v0C40,35.8,39.6,36.9,39.6,38.2z"></path> </g> <g> <g> <path class="st2" d="M43,15.8l-1,2.4l-2.5,0.2l1.9,1.7l-0.6,2.5l2.2-1.3l2.2,1.3L44.6,20l1.9-1.7L44,18.1L43,15.8z M54.2,18.8 l-1,2.4l-2.5,0.2l1.9,1.7L52,25.5l2.2-1.3l2.2,1.3L55.8,23l1.9-1.7l-2.5-0.2L54.2,18.8z M31.7,18.8l-1,2.4l-2.5,0.2l1.9,1.7 l-0.6,2.5l2.2-1.3l2.2,1.3L33.3,23l1.9-1.7l-2.5-0.2L31.7,18.8z M60.3,33l2.2-1.3l2.2,1.3l-0.6-2.5l1.9-1.7l-2.5-0.2l-1-2.4 l-1,2.4l-2.5,0.2l1.9,1.7L60.3,33z M24.2,26.3l-1,2.4l-2.5,0.2l1.9,1.7L22,33l2.2-1.3l2.2,1.3l-0.6-2.5l1.9-1.7l-2.5-0.2 L24.2,26.3z M69,40.1l-2.5-0.2l-1-2.4l-1,2.4l-2.5,0.2l1.9,1.7l-0.6,2.5l2.2-1.3l2.2,1.3l-0.6-2.5L69,40.1z M21.2,43l2.2,1.3 l-0.6-2.5l1.9-1.7l-2.5-0.2l-1-2.4l-1,2.4l-2.5,0.2l1.9,1.7L19,44.3L21.2,43z M63.5,51.1l-1-2.4l-1,2.4l-2.5,0.2l1.9,1.7 l-0.6,2.5l2.2-1.3l2.2,1.3L64.1,53l1.9-1.7L63.5,51.1z M25.2,51.1l-1-2.4l-1,2.4l-2.5,0.2l1.9,1.7L22,55.5l2.2-1.3l2.2,1.3 L25.8,53l1.9-1.7L25.2,51.1z M55.2,59.4l-1-2.4l-1,2.4l-2.5,0.2l1.9,1.7L52,63.8l2.2-1.3l2.2,1.3l-0.6-2.5l1.9-1.7L55.2,59.4z M32.7,59.4l-1-2.4l-1,2.4l-2.5,0.2l1.9,1.7l-0.6,2.5l2.2-1.3l2.2,1.3l-0.6-2.5l1.9-1.7L32.7,59.4z M44,61.6l-1-2.4l-1,2.4 l-2.5,0.2l1.9,1.7L40.8,66l2.2-1.3l2.2,1.3l-0.6-2.5l1.9-1.7L44,61.6z"></path> </g> </g> </g> </svg> 